<svg xmlns="http://www.w3.org/2000/svg" viewBox="0 0 96 96" role="img" aria-label="Jentic">
	<title>Jentic</title>
	<style>
		/* prefers-color-scheme aware (issue #614, decision D3): brand mint on dark
		   chrome, brand dark on light chrome, so the mark stays legible whichever
		   way the tab bar is themed and a future light app theme already works. */
		.glyph { fill: #0E1A1D; }
		@media (prefers-color-scheme: dark) {
			.glyph { fill: #A3CACC; }
		}
	</style>
	<g class="glyph" transform="translate(48 48) scale(0.79) translate(-63.15 -58.8)">
		<path d="M94.04,26.63c-2.28-.32-4.91,2.9-7.17,8.67-2.61,6.68-5.26,13.38-8.06,19.87l-.03.06-1.57,3.69h0s-.05.13-.05.13c-1.16,2.74-5,11.78-6.24,14.68-.82,1.94-1.7,3.8-2.65,5.59,0,0,0,0,0,.01h0s-.01.02-.02.03c-.65,1.24-1.37,2.39-2.15,3.4-5.36,6.93-12.54,8.78-17.79,9.07-7.89.13-18.36-3.07-22.73-14.86-2.07-5.36-2.58-11.83-2.41-18.05h36.34s-1.47,3.37-1.47,3.37l-.3.69-3.06.08c-2.66.07-5.24.04-7.93.16-2.38.11-4.62-.08-6.49,2.04-.74.84-1.23,1.86-1.49,2.95-.35,1.51-.15,2.63.59,4.45,1.52,3.38,4.63,5.4,8.33,5.4.11,0,.23,0,.34,0,2.09-.07,4.28-.8,6.08-2.14,1.59-1.19,2.78-3.02,3.71-5.05l2.33-5.85,14.87-35.07h0s0-.01,0-.01c.38-.96.76-1.92,1.14-2.88,0-.01,0-.02.01-.03.68-1.66,1.45-1.67,1.46-1.67,0,0,2.45-.61,7.67-.61,4.68,0,7.92.42,8.06.51.13.09.66.16.65,1.39Z" />
		<path d="M104.8,58.91h-.03l-1.96-6.2-.02-.06-2.06-6.51h0s-3.83-12.16-3.83-12.16c-.72-2.15-1.34-4.39-3.11-4.01-3.1.68-4.9,5.86-6.39,9.94-.36.97-.73,2.03-.93,3.16l.47.58,12.4,15.26.14.17h-16.88l-2.38-.02-.02.05-1.41,3.24-.3.7h27.65l-1.33-4.14ZM100.71,61.78h0s.01,0,.01,0h-.01Z" />
	</g>
</svg>
